HIERARCHY
ROOT Hips
{
  OFFSET 5.72205e-005 65.662 3.42586
  CHANNELS 6 Xposition Yposition Zposition Zrotation Xrotation Yrotation
  JOINT Chest
  {
    OFFSET 0 8.7983 -4.7612
    CHANNELS 3 Zrotation Xrotation Yrotation
    JOINT Chest2
    {
      OFFSET 0 8.0291 0.4195
      CHANNELS 3 Zrotation Xrotation Yrotation
      JOINT Chest3
      {
        OFFSET 0 9.9351 -2.2114
        CHANNELS 3 Zrotation Xrotation Yrotation
        JOINT Neck
        {
          OFFSET 0 22.3885 -0.4656
          CHANNELS 3 Zrotation Xrotation Yrotation
          JOINT Head
          {
            OFFSET -0.0001 12.643 3.4389
            CHANNELS 3 Zrotation Xrotation Yrotation
            End Site
            {
              OFFSET 0.0001 17.6655 0.5274
            }
          }
        }
        JOINT LeftCollar
        {
          OFFSET 2.2603 21.606 7.4023
          CHANNELS 3 Zrotation Xrotation Yrotation
          JOINT LeftShoulder
          {
            OFFSET 13.5163 -1.1332 -5.0146
            CHANNELS 3 Zrotation Xrotation Yrotation
            JOINT LeftElbow
            {
              OFFSET -0.0995 -28.05 -0.2431
              CHANNELS 3 Zrotation Xrotation Yrotation
              JOINT LeftWrist
              {
                OFFSET 0.0679 -23.3996 -0.1402
                CHANNELS 3 Zrotation Xrotation Yrotation
                JOINT LeftFinger1
                {
                  OFFSET 0.7932 -9.069 2.5189
                  CHANNELS 3 Zrotation Xrotation Yrotation
                  JOINT LeftFinger11
                  {
                    OFFSET -0.8272 -3.3923 0.5977
                    CHANNELS 3 Zrotation Xrotation Yrotation
                    JOINT LeftFinger12
                    {
                      OFFSET -0.5649 -2.3158 0.4082
                      CHANNELS 3 Zrotation Xrotation Yrotation
                      End Site
                      {
                        OFFSET -0.4919 -1.6479 0.2673
                      }
                    }
                  }
                }
                JOINT LeftFinger2
                {
                  OFFSET 0.9159 -9.2044 0.2193
                  CHANNELS 3 Zrotation Xrotation Yrotation
                  JOINT LeftFinger21
                  {
                    OFFSET 0.0117 -4.1944 -0.0248
                    CHANNELS 3 Zrotation Xrotation Yrotation
                    JOINT LeftFinger22
                    {
                      OFFSET 0.0071 -2.3249 -0.0142
                      CHANNELS 3 Zrotation Xrotation Yrotation
                      End Site
                      {
                        OFFSET -0.1475 -2.0882 0.0028
                      }
                    }
                  }
                }
                JOINT LeftFinger3
                {
                  OFFSET 0.6113 -8.7231 -2.0637
                  CHANNELS 3 Zrotation Xrotation Yrotation
                  JOINT LeftFinger31
                  {
                    OFFSET -0.1927 -3.8059 -0.2383
                    CHANNELS 3 Zrotation Xrotation Yrotation
                    JOINT LeftFinger32
                    {
                      OFFSET -0.1091 -2.1688 -0.1362
                      CHANNELS 3 Zrotation Xrotation Yrotation
                      End Site
                      {
                        OFFSET -0.2358 -1.9176 -0.0906
                      }
                    }
                  }
                }
                JOINT LeftFinger4
                {
                  OFFSET -0.6151 -8.0947 -3.5641
                  CHANNELS 3 Zrotation Xrotation Yrotation
                  JOINT LeftFinger41
                  {
                    OFFSET -0.4882 -2.341 -0.6462
                    CHANNELS 3 Zrotation Xrotation Yrotation
                    JOINT LeftFinger42
                    {
                      OFFSET -0.3575 -1.7167 -0.4742
                      CHANNELS 3 Zrotation Xrotation Yrotation
                      End Site
                      {
                        OFFSET -0.4187 -1.5237 -0.3496
                      }
                    }
                  }
                }
                JOINT LeftFinger0
                {
                  OFFSET -1.42 -1.8761 1.4223
                  CHANNELS 3 Zrotation Xrotation Yrotation
                  JOINT LeftFinger01
                  {
                    OFFSET -1.1471 -3.4929 2.6334
                    CHANNELS 3 Zrotation Xrotation Yrotation
                    JOINT LeftFinger02
                    {
                      OFFSET -0.823 -2.3 1.6571
                      CHANNELS 3 Zrotation Xrotation Yrotation
                      End Site
                      {
                        OFFSET -0.5822 -1.6914 1.1582
                      }
                    }
                  }
                }
              }
            }
          }
        }
        JOINT RightCollar
        {
          OFFSET -2.2603 21.606 7.4023
          CHANNELS 3 Zrotation Xrotation Yrotation
          JOINT RightShoulder
          {
            OFFSET -13.5187 -1.1334 -5.0155
            CHANNELS 3 Zrotation Xrotation Yrotation
            JOINT RightElbow
            {
              OFFSET 0.0994 -28.0499 -0.2431
              CHANNELS 3 Zrotation Xrotation Yrotation
              JOINT RightWrist
              {
                OFFSET -0.0679 -23.3996 -0.1402
                CHANNELS 3 Zrotation Xrotation Yrotation
                JOINT RightFinger1
                {
                  OFFSET -0.7932 -9.0691 2.5189
                  CHANNELS 3 Zrotation Xrotation Yrotation
                  JOINT RightFinger11
                  {
                    OFFSET 0.8272 -3.3923 0.5977
                    CHANNELS 3 Zrotation Xrotation Yrotation
                    JOINT RightFinger12
                    {
                      OFFSET 0.565 -2.3158 0.4082
                      CHANNELS 3 Zrotation Xrotation Yrotation
                      End Site
                      {
                        OFFSET 0.4919 -1.6479 0.2673
                      }
                    }
                  }
                }
                JOINT RightFinger2
                {
                  OFFSET -0.916 -9.2044 0.2193
                  CHANNELS 3 Zrotation Xrotation Yrotation
                  JOINT RightFinger21
                  {
                    OFFSET -0.0117 -4.1944 -0.0248
                    CHANNELS 3 Zrotation Xrotation Yrotation
                    JOINT RightFinger22
                    {
                      OFFSET -0.0071 -2.3249 -0.0142
                      CHANNELS 3 Zrotation Xrotation Yrotation
                      End Site
                      {
                        OFFSET 0.1475 -2.0882 0.0028
                      }
                    }
                  }
                }
                JOINT RightFinger3
                {
                  OFFSET -0.6113 -8.7231 -2.0637
                  CHANNELS 3 Zrotation Xrotation Yrotation
                  JOINT RightFinger31
                  {
                    OFFSET 0.1927 -3.8059 -0.2383
                    CHANNELS 3 Zrotation Xrotation Yrotation
                    JOINT RightFinger32
                    {
                      OFFSET 0.1091 -2.1688 -0.1362
                      CHANNELS 3 Zrotation Xrotation Yrotation
                      End Site
                      {
                        OFFSET 0.2358 -1.9176 -0.0906
                      }
                    }
                  }
                }
                JOINT RightFinger4
                {
                  OFFSET 0.6151 -8.0947 -3.564
                  CHANNELS 3 Zrotation Xrotation Yrotation
                  JOINT RightFinger41
                  {
                    OFFSET 0.4882 -2.341 -0.6462
                    CHANNELS 3 Zrotation Xrotation Yrotation
                    JOINT RightFinger42
                    {
                      OFFSET 0.3574 -1.7166 -0.4742
                      CHANNELS 3 Zrotation Xrotation Yrotation
                      End Site
                      {
                        OFFSET 0.4187 -1.5237 -0.3496
                      }
                    }
                  }
                }
                JOINT RightFinger0
                {
                  OFFSET 1.4199 -1.8761 1.4221
                  CHANNELS 3 Zrotation Xrotation Yrotation
                  JOINT RightFinger01
                  {
                    OFFSET 1.1472 -3.4929 2.6336
                    CHANNELS 3 Zrotation Xrotation Yrotation
                    JOINT RightFinger02
                    {
                      OFFSET 0.8229 -2.3 1.6571
                      CHANNELS 3 Zrotation Xrotation Yrotation
                      End Site
                      {
                        OFFSET 0.5822 -1.6914 1.1582
                      }
                    }
                  }
                }
              }
            }
          }
        }
      }
    }
  }
  JOINT RightHip
  {
    OFFSET -9.412 3.9771 -0.7758
    CHANNELS 3 Zrotation Xrotation Yrotation
    JOINT RightKnee
    {
      OFFSET -0.7531 -40.938 0
      CHANNELS 3 Zrotation Xrotation Yrotation
      JOINT RightAnkle
      {
        OFFSET 0 -40.1986 0
        CHANNELS 3 Zrotation Xrotation Yrotation
        JOINT RightToe
        {
          OFFSET 0 -4.4182 9.239
          CHANNELS 3 Zrotation Xrotation Yrotation
          End Site
          {
            OFFSET 0 0 6.1981
          }
        }
      }
    }
  }
  JOINT LeftHip
  {
    OFFSET 9.4119 3.9773 -0.7758
    CHANNELS 3 Zrotation Xrotation Yrotation
    JOINT LeftKnee
    {
      OFFSET 0.7532 -40.9383 0
      CHANNELS 3 Zrotation Xrotation Yrotation
      JOINT LeftAnkle
      {
        OFFSET 0 -40.1986 0
        CHANNELS 3 Zrotation Xrotation Yrotation
        JOINT LeftToe
        {
          OFFSET 0 -4.4182 9.239
          CHANNELS 3 Zrotation Xrotation Yrotation
          End Site
          {
            OFFSET 0 0 6.1981
          }
        }
      }
    }
  }
}
MOTION
Frames:	6
Frame Time:	0.0333333
5.72205e-005 65.662 3.42586 0 0 -0 0 0 -0 0 0 -0 0 0 -0 0 0 -0 0 0 -0 0 0 -12.5014 88.1196 14.2451 10.6914 -0.00160068 -0.00239207 0.000740045 -8.4365e-005 7.00714e-005 -9.52055e-007 9.93923e-017 -1.98785e-016 -1.59028e-015 9.93923e-017 -5.96354e-016 -1.59028e-015 -9.93923e-017 -5.96354e-016 -1.59028e-015 9.93923e-017 -1.98785e-016 -1.59028e-015 -0.0128176 0.00232552 8.52707e-005 9.93923e-017 5.96354e-016 -0 9.93923e-017 -1.98785e-016 -1.59028e-015 -0.0160551 0.00299681 0.000857156 -2.48481e-016 0 3.18055e-015 9.93923e-017 -1.98785e-016 -1.59028e-015 -0.0125865 0.0031206 0.00282719 0 1.98785e-016 -0 9.93923e-017 -1.98785e-016 -1.59028e-015 9.93923e-017 -5.96354e-016 -1.59028e-015 -9.93923e-017 -5.96354e-016 -1.59028e-015 -0.865644 0.16582 7.03859 -88.0329 10.2057 -10.5567 0.0015593 -0.00248883 -0.000788628 7.87605e-005 4.10553e-005 1.24965e-005 -3.97569e-016 -7.95139e-016 3.18055e-015 -1.98785e-016 -3.97569e-016 3.18055e-015 -1.98785e-016 0 3.18055e-015 -3.97569e-016 -7.95139e-016 3.18055e-015 0.0129473 0.00231697 -8.70038e-005 9.93923e-017 -7.95139e-016 1.59028e-015 -3.97569e-016 -7.95139e-016 3.18055e-015 0.0163314 0.00303369 -0.000872333 3.97569e-016 7.95139e-016 -3.18055e-015 -3.97569e-016 -7.95139e-016 3.18055e-015 0.0145763 0.00367772 -0.00326275 9.93923e-017 -3.97569e-016 -0 -3.97569e-016 -7.95139e-016 3.18055e-015 -1.98785e-016 -3.97569e-016 3.18055e-015 -1.98785e-016 0 3.18055e-015 3.42482 1.32465 -0.0626183 0.000117508 0.717283 0.000978199 -3.4257 -2.04197 -0.0604716 6.47761e-025 0 -0 -3.42483 1.34017 0.0627307 -0.000193936 0.682302 -0.0013703 3.42574 -2.02253 0.0595886 -8.45714e-024 0 -7.40531e-025 
-0.617888 51.6322 6.5755 -2.50475e-007 -1.00193 1.29044e-007 -0.625479 -1.37147 -0.247485 -1.25742 -2.74015 -0.510157 -1.25742 -2.74015 -0.510157 -7.23526e-005 -0.281678 -2.75439e-005 1.16136e-006 -0.575268 2.66082e-007 11.6379 1.37939 -14.2644 32.5861 -4.2349 20.2075 -88.1675 -41.2931 -63.9447 -13.3641 23.4334 13.9432 1.94212e-030 -1.74931e-014 6.36111e-015 -3.18055e-015 -1.59028e-014 3.18055e-015 -6.39342e-006 7.67961e-006 -7.43412e-006 1.94212e-030 -1.74931e-014 6.36111e-015 -0.0128537 0.00234602 8.40365e-005 -3.18055e-015 -6.36111e-015 3.18055e-015 1.94212e-030 -1.74931e-014 6.36111e-015 -0.0160361 0.00299302 0.000849367 -4.76363e-006 7.02941e-007 -1.96637e-006 1.94212e-030 -1.74931e-014 6.36111e-015 -0.0125896 0.00310712 0.00281191 3.18055e-015 9.54166e-015 -0 1.94212e-030 -1.74931e-014 6.36111e-015 -3.18055e-015 -1.59028e-014 3.18055e-015 -6.39342e-006 7.67961e-006 -7.43412e-006 -13.5471 1.08407 7.73455 -32.1725 -6.84236 -15.746 84.4512 -42.1725 61.5964 17.588 21.4328 -12.8547 3.18055e-015 -1.11319e-014 1.27222e-014 -2.40769e-006 4.1484e-006 2.37488e-006 3.18055e-015 -1.59028e-015 6.36111e-015 3.18055e-015 -1.11319e-014 1.27222e-014 0.0129343 0.00229966 -7.68906e-005 0 1.27222e-014 -0 3.18055e-015 -1.11319e-014 1.27222e-014 0.0163835 0.0030364 -0.000868884 -9.54166e-015 3.18055e-015 -0 3.18055e-015 -1.11319e-014 1.27222e-014 0.0145888 0.00367733 -0.00326018 -3.18055e-015 -3.18055e-015 -9.54166e-015 3.18055e-015 -1.11319e-014 1.27222e-014 -2.40769e-006 4.1484e-006 2.37488e-006 3.18055e-015 -1.59028e-015 6.36111e-015 -120.386 -19.006 -168.934 -152.733 19.0631 110.916 4.9557 -14.2451 39.6319 3.20637e-006 1.99807e-006 1.93428e-007 120.405 -19.029 168.941 152.77 19.0631 -110.954 -4.94723 -14.2479 -39.6185 1.60306e-006 -4.66647e-008 9.70122e-008 
-0.617856 51.8555 6.72386 7.19554e-007 -1.77807 2.63158e-008 -0.628783 -0.934215 -0.243196 -1.26177 -1.8657 -0.49673 -1.26177 -1.86569 -0.49673 -0.000101325 -0.559881 -3.80729e-005 1.3828e-006 -1.13857 6.10175e-008 11.5508 0.376374 -14.7095 33.027 -4.3498 20.3232 -87.4183 -41.5125 -63.4211 -13.1632 22.8819 13.9667 3.52208e-006 -2.5238e-007 -5.62726e-007 -4.33658e-006 2.27333e-006 -2.16916e-006 7.19382e-006 1.52077e-006 2.73364e-006 3.52208e-006 -2.5238e-007 -5.62726e-007 -0.0127739 0.00230584 8.04737e-005 -5.71441e-007 -3.73828e-006 -3.66847e-006 3.52208e-006 -2.5238e-007 -5.62726e-007 -0.0160787 0.00300281 0.0008571 8.12602e-006 2.92268e-006 -2.4428e-006 3.52208e-006 -2.5238e-007 -5.62726e-007 -0.0125614 0.00310497 0.00281429 8.69763e-006 1.25859e-005 1.22505e-006 3.52208e-006 -2.5238e-007 -5.62726e-007 -4.33658e-006 2.27333e-006 -2.16916e-006 7.19382e-006 1.52077e-006 2.73364e-006 -13.4363 0.105337 8.21615 -32.6338 -6.93401 -15.899 83.7822 -42.3712 61.1187 17.2653 20.9021 -12.9159 1.94032e-006 2.16589e-006 1.49008e-006 6.36111e-015 -6.36111e-015 -0 0 1.43125e-014 -0 1.94032e-006 2.16589e-006 1.49008e-006 0.0129907 0.00231027 -8.65868e-005 -4.41391e-031 7.95139e-015 3.18055e-015 1.94032e-006 2.16589e-006 1.49008e-006 0.0163732 0.00304346 -0.000879249 3.18055e-015 7.95139e-015 -0 1.94032e-006 2.16589e-006 1.49008e-006 0.0145488 0.0036711 -0.00326059 -3.18055e-015 -4.77083e-015 -0 1.94032e-006 2.16589e-006 1.49008e-006 6.36111e-015 -6.36111e-015 -0 0 1.43125e-014 -0 -119.38 -18.6465 -167.937 -152.709 19.0774 110.899 4.41161 -14.6077 40.1926 -3.20503e-006 -2.00817e-006 -1.96503e-007 119.398 -18.6694 167.942 152.746 19.0774 -110.937 -4.40335 -14.6105 -40.181 1.44305e-005 -1.34899e-006 -8.16732e-006 
-0.617824 52.0805 6.8714 6.84808e-007 -2.55478 1.22741e-007 -0.631871 -0.490682 -0.23872 -1.26584 -0.978697 -0.48286 -1.26585 -0.978705 -0.482863 -0.000201783 -0.838204 -7.54344e-005 -8.68184e-007 -1.70279 -3.16406e-007 11.4558 -0.627444 -15.1567 33.4682 -4.46382 20.44 -86.6636 -41.7268 -62.8918 -12.9627 22.3302 13.9922 1.76556e-031 -3.18055e-015 3.18055e-015 -3.18055e-015 1.59028e-015 -0 -3.18055e-015 6.36111e-015 3.18055e-015 1.76556e-031 -3.18055e-015 3.18055e-015 -0.0128239 0.00234005 9.34709e-005 -2.7086e-006 2.00486e-006 -4.14492e-006 1.76556e-031 -3.18055e-015 3.18055e-015 -0.0159957 0.00299043 0.000858011 8.82781e-032 1.59028e-015 -3.18055e-015 1.76556e-031 -3.18055e-015 3.18055e-015 -0.0126554 0.0031485 0.00284242 9.54166e-015 0 -0 1.76556e-031 -3.18055e-015 3.18055e-015 -3.18055e-015 1.59028e-015 -0 -3.18055e-015 6.36111e-015 3.18055e-015 -13.3172 -0.873885 8.70037 -33.0954 -7.02435 -16.0527 83.1086 -42.5658 60.6363 16.943 20.3714 -12.9801 1.8117e-006 -1.74919e-006 -1.77331e-006 2.64426e-006 1.79534e-006 7.79439e-007 7.32388e-007 2.19523e-006 2.67363e-006 1.8117e-006 -1.74919e-006 -1.77331e-006 0.0129645 0.00230675 -7.6009e-005 -6.36111e-015 6.36111e-015 -3.18055e-015 1.8117e-006 -1.74919e-006 -1.77331e-006 0.0163675 0.00303815 -0.000870541 3.18055e-015 6.36111e-015 -3.18055e-015 1.8117e-006 -1.74919e-006 -1.77331e-006 0.0145621 0.00366989 -0.00325256 3.18055e-015 7.95139e-015 -0 1.8117e-006 -1.74919e-006 -1.77331e-006 2.64426e-006 1.79534e-006 7.79439e-007 7.32388e-007 2.19523e-006 2.67363e-006 -118.379 -18.2724 -166.948 -152.685 19.0913 110.881 3.87036 -14.979 40.7507 -3.97569e-015 3.18055e-015 1.59028e-014 118.396 -18.2951 166.951 152.722 19.0913 -110.919 -3.86244 -14.9818 -40.7411 1.60162e-006 9.18995e-007 1.00272e-007 
-0.617792 52.3072 7.01811 4.27573e-007 -3.332 2.59203e-007 -0.634741 -0.041576 -0.234065 -1.26966 -0.080558 -0.468581 -1.26966 -0.0805581 -0.46858 -0.00033066 -1.11649 -0.000120654 -1.93114e-006 -2.26789 -5.55701e-008 11.3526 -1.63166 -15.6065 33.9098 -4.57691 20.5576 -85.9034 -41.936 -62.3569 -12.7627 21.7784 14.0196 6.36111e-015 -6.36111e-015 -0 8.09788e-007 -9.78366e-007 2.72983e-006 -3.18055e-015 3.18055e-015 -0 6.36111e-015 -6.36111e-015 -0 -0.0128095 0.00232746 8.75054e-005 3.18055e-015 0 6.36111e-015 6.36111e-015 -6.36111e-015 -0 -0.0160702 0.00299394 0.000844102 9.54166e-015 -3.18055e-015 -0 6.36111e-015 -6.36111e-015 -0 -0.0125823 0.00312586 0.00282981 -7.44749e-006 -6.76381e-006 -1.05006e-005 6.36111e-015 -6.36111e-015 -0 8.09788e-007 -9.78366e-007 2.72983e-006 -3.18055e-015 3.18055e-015 -0 -13.1896 -1.85319 9.18749 -33.5577 -7.11366 -16.2073 82.4304 -42.7562 60.1488 16.6209 19.8409 -13.0472 6.17947e-031 -1.11319e-014 3.18055e-015 4.92539e-006 3.38953e-006 8.68855e-006 -4.41391e-031 -7.95139e-015 -3.18055e-015 6.17947e-031 -1.11319e-014 3.18055e-015 0.0130043 0.00231371 -7.99468e-005 3.18055e-015 4.77083e-015 -3.18055e-015 6.17947e-031 -1.11319e-014 3.18055e-015 0.016387 0.00303744 -0.000866954 -2.64834e-031 -4.77083e-015 -3.18055e-015 6.17947e-031 -1.11319e-014 3.18055e-015 0.0145447 0.00366623 -0.00324236 2.64129e-006 1.80348e-006 7.86595e-007 6.17947e-031 -1.11319e-014 3.18055e-015 4.92539e-006 3.38953e-006 8.68855e-006 -4.41391e-031 -7.95139e-015 -3.18055e-015 -117.385 -17.8839 -165.968 -152.662 19.1049 110.863 3.33224 -15.3588 41.3063 -1.14766e-006 -4.22715e-007 2.79884e-006 117.4 -17.9064 165.969 152.699 19.1049 -110.901 -3.32458 -15.3617 -41.2986 4.77083e-015 3.88722e-009 3.18055e-015 
-0.617762 52.5358 7.16408 5.46831e-007 -4.10965 1.86869e-007 -0.637536 0.412467 -0.229295 -1.27348 0.827471 -0.454006 -1.27347 0.827465 -0.454003 0.000228167 -1.39514 8.24956e-005 1.4998e-006 -2.83385 7.9143e-007 11.2421 -2.63636 -16.0585 34.3518 -4.68918 20.6761 -85.1379 -42.1399 -61.8162 -12.5631 21.2265 14.0491 3.18055e-015 -4.77083e-015 -0 1.21225e-006 3.14621e-006 2.56219e-006 -6.14511e-006 -1.90175e-005 -8.20209e-006 3.18055e-015 -4.77083e-015 -0 -0.0127731 0.00231471 9.42582e-005 3.18055e-015 -1.59028e-015 -6.36111e-015 3.18055e-015 -4.77083e-015 -0 -0.0159896 0.00297562 0.000851778 3.18055e-015 -3.18055e-015 -0 3.18055e-015 -4.77083e-015 -0 -0.0126454 0.00312788 0.0028422 8.05726e-007 -2.02126e-006 2.72986e-006 3.18055e-015 -4.77083e-015 -0 1.21225e-006 3.14621e-006 2.56219e-006 -6.14511e-006 -1.90175e-005 -8.20209e-006 -13.0527 -2.83276 9.67786 -34.0204 -7.20168 -16.3626 81.748 -42.9425 59.6569 16.2991 19.3106 -13.1173 8.82781e-032 -1.59028e-015 3.18055e-015 -3.18055e-015 -9.54166e-015 -0 3.87536e-006 3.21428e-006 2.99055e-006 8.82781e-032 -1.59028e-015 3.18055e-015 0.012949 0.002295 -7.9952e-005 2.95905e-007 1.22765e-005 -3.62273e-006 8.82781e-032 -1.59028e-015 3.18055e-015 0.0163046 0.00302791 -0.000860084 6.05999e-007 -4.6907e-007 -5.88656e-007 8.82781e-032 -1.59028e-015 3.18055e-015 0.0145096 0.003662 -0.00324345 1.93698e-006 -9.53084e-007 1.49553e-006 8.82781e-032 -1.59028e-015 3.18055e-015 -3.18055e-015 -9.54166e-015 -0 3.87536e-006 3.21428e-006 2.99055e-006 -116.397 -17.4811 -164.996 -152.64 19.1181 110.845 2.79738 -15.7474 41.8592 -2.38542e-015 1.98191e-009 3.18055e-015 116.411 -17.5033 164.995 152.677 19.118 -110.883 -2.79 -15.7503 -41.8535 1.59976e-006 -4.9958e-008 1.0423e-007 
